<svg width="28" height="28" viewBox="0 0 28 28" fill="none" xmlns="http://www.w3.org/2000/svg">
<path d="M5.3439 18.0301C5.4101 18.6821 5.76283 19.2669 6.26479 19.6618C5.9838 19.9925 5.81373 20.4201 5.81373 20.8869V22.637C5.81373 23.3913 6.24909 24.0411 6.88723 24.3463C6.85108 24.5206 6.83192 24.7011 6.83192 24.886C6.83192 26.349 8.02218 27.5393 9.48514 27.5393C10.9482 27.5393 12.1384 26.349 12.1384 24.886C12.1384 24.7661 12.1297 24.6482 12.1142 24.5325H16.4784C16.4629 24.6483 16.4541 24.7661 16.4541 24.886C16.4541 26.349 17.6444 27.5393 19.1074 27.5393C20.5703 27.5393 21.7606 26.349 21.7606 24.886C21.7606 23.423 20.5703 22.2327 19.1074 22.2327C18.2199 22.2327 17.4334 22.6711 16.9514 23.3423H11.6411C11.1591 22.6711 10.3726 22.2327 9.48509 22.2327C8.63243 22.2327 7.87295 22.6375 7.38721 23.2645C7.1587 23.1478 7.0037 22.9113 7.0037 22.637V20.887C7.0037 20.4983 7.32011 20.1821 7.70905 20.1821C7.71087 20.1821 7.71263 20.1819 7.71444 20.1818C7.71807 20.1819 7.72169 20.1821 7.72526 20.1821H21.6386C22.789 20.1821 23.9806 19.3292 24.3514 18.2404L27.8869 7.85939C28.087 7.27203 28.0189 6.67979 27.7001 6.23451C27.3814 5.78923 26.8427 5.5338 26.2223 5.5338H24.9534L21.1295 1.69163C20.535 1.09724 19.5714 1.09208 18.9699 1.67554L12.5168 3.41133L10.7845 0.305288C10.6244 0.0182943 10.2621 -0.0845678 9.97497 0.0754211L6.51024 2.00776C6.37236 2.0846 6.27074 2.21314 6.22767 2.36497C6.18454 2.5168 6.20353 2.67951 6.28043 2.81733L7.79543 5.53375H6.36017C5.97746 5.53375 5.61696 5.63151 5.30435 5.81479L5.02336 3.00555C4.99293 2.70132 4.73693 2.4697 4.43124 2.4697H0.595071C0.266422 2.4697 0 2.73612 0 3.06477C0 3.39342 0.266422 3.65984 0.595071 3.65984H3.89273L5.3439 18.0301ZM19.1075 23.4228C19.9142 23.4228 20.5706 24.0792 20.5706 24.8859C20.5706 25.6927 19.9142 26.3491 19.1075 26.3491C18.3007 26.3491 17.6444 25.6927 17.6444 24.8859C17.6444 24.0791 18.3007 23.4228 19.1075 23.4228ZM9.4852 23.4228C10.2919 23.4228 10.9483 24.0792 10.9483 24.8859C10.9483 25.6927 10.2919 26.3491 9.4852 26.3491C8.67845 26.3491 8.02212 25.6927 8.02212 24.8859C8.02212 24.0791 8.67845 23.4228 9.4852 23.4228ZM20.2872 2.53215L23.2745 5.53375H16.7942L19.7947 2.53323C19.9307 2.39716 20.152 2.39716 20.2872 2.53215ZM17.2831 3.36174L15.1111 5.53375H13.7005L13.1145 4.48308L17.2831 3.36174ZM7.60959 2.75732L10.0349 1.40469L12.3378 5.53375H9.15808L7.60959 2.75732ZM26.7605 7.4756L23.225 17.8566C23.019 18.4614 22.2777 18.9919 21.6388 18.9919H7.72543C7.13586 18.9919 6.58743 18.4964 6.52792 17.91L6.31767 15.8361H19.1116C19.4402 15.8361 19.7066 15.5696 19.7066 15.241C19.7066 14.9123 19.4402 14.6459 19.1116 14.6459H6.19707L5.49284 7.69935C5.49284 7.69918 5.49284 7.69912 5.49284 7.69901L5.49273 7.6977C5.46592 7.4331 5.54254 7.18628 5.7086 7.00255C5.87097 6.82284 6.10236 6.72389 6.36017 6.72389H24.7007C24.7027 6.72394 24.7046 6.72417 24.7065 6.72417C24.7085 6.72417 24.7104 6.72394 24.7123 6.72389H26.2225C26.4576 6.72389 26.6388 6.79609 26.7326 6.92717C26.8265 7.0582 26.8363 7.25299 26.7605 7.4756Z" fill="black"/>
</svg>
