<svg width="59" height="59" viewBox="0 0 59 59" fill="none" xmlns="http://www.w3.org/2000/svg">
<g clip-path="url(#clip0_508_367)">
<path d="M2 5H45V21H2L9.56482 13.381L2 5Z" fill="#365BDF"/>
<path d="M57.5798 49.1462C58.0899 49.1462 58.5036 48.7326 58.5036 48.2224V9.79227C58.5036 9.55028 58.4042 9.31013 58.233 9.13912L49.3646 0.270686C49.1932 0.0994473 48.9533 0 48.7112 0H12.2519C10.6559 0 9.3573 1.29846 9.3573 2.89457V3.94159H1.4127C0.607554 3.94159 0.189368 4.94851 0.759548 5.51857L7.98947 12.7485L0.759663 19.9784C0.189599 20.5485 0.607554 21.5554 1.41281 21.5554H9.35753V56.1055C9.35753 57.7017 10.656 59.0001 12.2521 59.0001H55.6091C57.2053 59.0001 58.5037 57.7017 58.5037 56.1055V52.164C58.5037 51.6538 58.0901 51.2401 57.5799 51.2401C57.0696 51.2401 56.656 51.6537 56.656 52.164V56.1055C56.656 56.6829 56.1864 57.1526 55.609 57.1526H12.252C11.6747 57.1526 11.205 56.6829 11.205 56.1055V21.5553H17.1788C17.689 21.5553 18.1027 21.1417 18.1027 20.6314C18.1027 20.1212 17.6891 19.7076 17.1788 19.7076H3.64294L9.94903 13.4015C10.3098 13.0407 10.3098 12.4558 9.94903 12.0951L3.64294 5.78914H43.8459V19.7077H21.1205C20.6104 19.7077 20.1967 20.1213 20.1967 20.6316C20.1967 21.1418 20.6103 21.5554 21.1205 21.5554H44.7699C45.28 21.5554 45.6937 21.1418 45.6937 20.6316V4.86531C45.6937 4.35517 45.2801 3.94148 44.7699 3.94148H11.2051V2.89446C11.2051 2.31713 11.6748 1.84744 12.2521 1.84744H47.7875V7.8213C47.7875 9.41741 49.086 10.7159 50.6821 10.7159H56.6559V48.2221C56.6559 48.7326 57.0696 49.1462 57.5798 49.1462ZM50.682 8.86844C50.1046 8.86844 49.6349 8.39874 49.6349 7.82142V3.15396L52.4922 6.0112L55.3494 8.86844H50.682Z" fill="black"/>
<path d="M47.7265 24.6346H20.1358C19.083 24.6346 18.2266 25.4911 18.2266 26.5438V52.1639C18.2266 53.2167 19.083 54.0731 20.1358 54.0731H47.7265C48.7793 54.0731 49.6358 53.2167 49.6358 52.1639V26.5438C49.6358 25.4911 48.7793 24.6346 47.7265 24.6346ZM47.7881 52.1638C47.7881 52.1978 47.7605 52.2253 47.7265 52.2253H20.1358C20.1018 52.2253 20.0742 52.1978 20.0742 52.1638V26.5437C20.0742 26.5097 20.1018 26.4822 20.1358 26.4822H47.7265C47.7605 26.4822 47.7881 26.5097 47.7881 26.5437V52.1638Z" fill="black"/>
<path d="M42.9493 41.3987C42.4458 41.315 41.97 41.6548 41.8861 42.1581L41.3678 45.2683L40.6674 43.8677C40.3337 43.2002 39.3485 43.2 39.0149 43.8677L38.3145 45.2683L37.7962 42.1581C37.7123 41.6549 37.2358 41.3148 36.733 41.3987C36.2298 41.4826 35.8898 41.9585 35.9737 42.4619L36.959 48.3742C37.0221 48.7521 37.3225 49.0591 37.6992 49.1301C38.1002 49.2056 38.514 49.0006 38.6965 48.6354L39.841 46.3465L40.9856 48.6354C41.171 49.0062 41.5938 49.2105 41.9995 49.1267C42.3689 49.0504 42.6611 48.7462 42.7231 48.3742L43.7084 42.4619C43.7925 41.9585 43.4525 41.4826 42.9493 41.3987Z" fill="black"/>
<path d="M42.7975 29.5615H25.0606C24.5504 29.5615 24.1367 29.9751 24.1367 30.4854C24.1367 30.9956 24.5503 31.4092 25.0606 31.4092H42.7975C43.3077 31.4092 43.7214 30.9956 43.7214 30.4854C43.7214 29.9751 43.3077 29.5615 42.7975 29.5615Z" fill="black"/>
<path d="M42.7975 35.4739H25.0606C24.5504 35.4739 24.1367 35.8875 24.1367 36.3977C24.1367 36.908 24.5503 37.3215 25.0606 37.3215H42.7975C43.3077 37.3215 43.7214 36.908 43.7214 36.3977C43.7214 35.8875 43.3077 35.4739 42.7975 35.4739Z" fill="black"/>
<path d="M32.9436 41.3862H25.0606C24.5504 41.3862 24.1367 41.7998 24.1367 42.3101C24.1367 42.8202 24.5503 43.2339 25.0606 43.2339H32.9436C33.4538 43.2339 33.8675 42.8203 33.8675 42.3101C33.8675 41.7999 33.4539 41.3862 32.9436 41.3862Z" fill="black"/>
<path d="M32.9436 47.2986H25.0606C24.5504 47.2986 24.1367 47.7122 24.1367 48.2224C24.1367 48.7326 24.5503 49.1463 25.0606 49.1463H32.9436C33.4538 49.1463 33.8675 48.7327 33.8675 48.2224C33.8675 47.7122 33.4539 47.2986 32.9436 47.2986Z" fill="black"/>
<path d="M35.9034 14.7807H33.871V10.7161H35.9034C36.4135 10.7161 36.8272 10.3025 36.8272 9.79224C36.8272 9.28198 36.4136 8.86841 35.9034 8.86841H32.9473C32.4371 8.86841 32.0234 9.28198 32.0234 9.79224V15.7046C32.0234 16.2147 32.437 16.6284 32.9473 16.6284H35.9034C36.4135 16.6284 36.8272 16.2148 36.8272 15.7046C36.8272 15.1943 36.4135 14.7807 35.9034 14.7807Z" fill="black"/>
<path d="M29.9904 8.86841H26.0488C25.5387 8.86841 25.125 9.28198 25.125 9.79224V15.7046C25.125 16.2147 25.5386 16.6284 26.0488 16.6284H29.9904C30.5006 16.6284 30.9143 16.2148 30.9143 15.7046V9.79224C30.9143 9.2821 30.5006 8.86841 29.9904 8.86841ZM29.0666 14.7807H26.9727V10.7161H29.0666V14.7807Z" fill="black"/>
<path d="M21.1221 8.86841H18.166C17.6559 8.86841 17.2422 9.28198 17.2422 9.79224V15.7046C17.2422 16.2147 17.6558 16.6284 18.166 16.6284H23.093C23.6031 16.6284 24.0168 16.2148 24.0168 15.7046V11.763C24.0167 10.167 22.7181 8.86841 21.1221 8.86841ZM22.169 14.7807H19.0897V10.7161H21.1221C21.6995 10.7161 22.1691 11.1858 22.1691 11.7631V14.7807H22.169Z" fill="black"/>
</g>
<defs>
<clipPath id="clip0_508_367">
<rect width="59" height="59" fill="white"/>
</clipPath>
</defs>
</svg>
