<svg width="67" height="67" viewBox="0 0 67 67" fill="none" xmlns="http://www.w3.org/2000/svg">
<path d="M35.6601 31.3386H35.2732C32.7002 33.3625 29.4628 34.5804 25.9344 34.5804C22.406 34.5804 19.1686 33.3625 16.5956 31.3384H16.2088H5.40234V48.6286H46.4667V31.3384L35.6601 31.3386Z" fill="#365BDF"/>
<path d="M63.758 52.9515H62.6772V41.0644H58.2523L57.1715 30.258H47.5485V20.5323H42.09C42.1138 20.1736 42.1451 19.8169 42.1451 19.4515C42.1451 15.0965 40.4096 11.1446 37.6054 8.22901L38.3629 7.47147L40.3006 9.40913L41.8286 7.88113L36.4255 2.47781L34.8975 4.00581L36.8352 5.94347L36.0064 6.77225C33.5025 4.77949 30.4011 3.52168 27.0166 3.29691V2.16128H30.2584V0H21.6133V2.16128H24.8551V3.29714C21.4706 3.52191 18.3692 4.78087 15.8653 6.77248L15.0365 5.9437L16.9742 4.00604L15.4462 2.47804L10.0424 7.88113L11.5704 9.40913L13.5081 7.47147L14.2656 8.22901C11.4614 11.1446 9.72589 15.0965 9.72589 19.4515C9.72589 19.8167 9.75724 20.1734 9.78099 20.5323H4.32257V52.9515H3.24204C1.45469 52.9515 0 54.406 0 56.1934C0 57.9807 1.45446 59.4354 3.24181 59.4354H4.32233H6.48362H9.72543C9.72543 63.6056 13.1187 67 17.2898 67C21.4609 67 24.8542 63.6058 24.8542 59.4354H45.3862C45.3862 63.6056 48.7795 67 52.9506 67C57.1217 67 60.515 63.6058 60.515 59.4354H62.6763H63.757C65.5444 59.4354 66.9988 57.9809 66.9988 56.1934C66.9988 54.4058 65.5453 52.9515 63.758 52.9515ZM55.2154 32.4192L56.0799 41.0644H47.5482V32.4192H55.2154ZM25.9354 5.40332C33.6814 5.40332 39.9836 11.7055 39.9836 19.4518C39.9836 27.198 33.6814 33.5 25.9354 33.5C18.1894 33.5 11.8872 27.1976 11.8872 19.4515C11.8872 11.7055 18.1894 5.40332 25.9354 5.40332ZM4.32257 57.2741H3.24204C2.64656 57.2741 2.16151 56.79 2.16151 56.1934C2.16151 55.5967 2.64679 55.1126 3.24204 55.1126H4.32257V57.2741ZM17.2903 64.8385C14.311 64.8385 11.8872 62.4146 11.8872 59.4352C11.8872 56.4557 14.311 54.0321 17.2903 54.0321C20.2695 54.0321 22.6934 56.4559 22.6934 59.4354C22.6934 62.4148 20.2697 64.8385 17.2903 64.8385ZM24.536 57.2741C23.6033 54.1531 20.7094 51.8708 17.2903 51.8708C13.8712 51.8708 10.9772 54.1531 10.0445 57.2741H6.48385V52.9515V22.6936H10.0521C11.5584 30.083 18.1073 35.6613 25.9354 35.6613C33.7635 35.6613 40.3121 30.083 41.8187 22.6936H45.3869V30.2582V41.0646V43.2259V57.2743H24.536V57.2741ZM52.9513 64.8385C49.9721 64.8385 47.5482 62.4146 47.5482 59.4352C47.5482 56.4557 49.9721 54.0318 52.9513 54.0318C55.9305 54.0318 58.3544 56.4557 58.3544 59.4352C58.3544 62.4146 55.9308 64.8385 52.9513 64.8385ZM60.5161 57.2741H60.1973C59.2646 54.1531 56.3706 51.8708 52.9513 51.8708C50.8354 51.8708 48.9227 52.7461 47.5482 54.152V43.2257H58.4681H60.5159V52.9515V57.2741H60.5161ZM63.758 57.2741H62.6772V55.1128H63.758C64.3534 55.1128 64.8385 55.597 64.8385 56.1936C64.8385 56.7902 64.3532 57.2741 63.758 57.2741Z" fill="#303030"/>
<path d="M17.2887 56.1934C15.5013 56.1934 14.0469 57.6478 14.0469 59.4354C14.0469 61.2228 15.5013 62.6774 17.2887 62.6774C19.076 62.6774 20.5305 61.223 20.5305 59.4354C20.5307 57.6478 19.076 56.1934 17.2887 56.1934ZM17.2887 60.5159C16.6932 60.5159 16.2082 60.0318 16.2082 59.4352C16.2082 58.8385 16.6934 58.3544 17.2887 58.3544C17.8839 58.3544 18.3692 58.8385 18.3692 59.4352C18.3692 60.0318 17.8842 60.5159 17.2887 60.5159Z" fill="#303030"/>
<path d="M52.9528 56.1934C51.1654 56.1934 49.7109 57.6478 49.7109 59.4354C49.7109 61.2228 51.1654 62.6774 52.9528 62.6774C54.7401 62.6774 56.1946 61.223 56.1946 59.4354C56.1948 57.6478 54.7401 56.1934 52.9528 56.1934ZM52.9528 60.5159C52.3573 60.5159 51.872 60.0318 51.872 59.4352C51.872 58.8385 52.3573 58.3544 52.9528 58.3544C53.5482 58.3544 54.0333 58.8385 54.0333 59.4352C54.0333 60.0318 53.5482 60.5159 52.9528 60.5159Z" fill="#303030"/>
<path d="M22.6947 19.4516C22.6947 21.2389 24.1492 22.6936 25.9366 22.6936C27.7239 22.6936 29.1784 21.2392 29.1784 19.4516C29.1784 17.664 27.7239 16.2096 25.9366 16.2096C25.7528 16.2096 25.5755 16.2345 25.3994 16.2635L19.1922 9.02234L17.5508 10.4293L23.4857 17.353C22.9993 17.9204 22.6947 18.6477 22.6947 19.4516ZM27.0173 19.4516C27.0173 20.0471 26.532 20.5324 25.9368 20.5324C25.3413 20.5324 24.8563 20.0471 24.8563 19.4516C24.8563 18.8561 25.3415 18.3708 25.9368 18.3708C26.532 18.3711 27.0173 18.8561 27.0173 19.4516Z" fill="#303030"/>
<path d="M24.9483 31.29L25.1256 29.1363C20.1254 28.7234 16.2082 24.47 16.2082 19.4517C16.2082 17.0764 17.0835 14.7854 18.6731 12.998L17.0586 11.5618C15.1168 13.7447 14.0469 16.5467 14.0469 19.4514C14.0469 25.5862 18.8351 30.7862 24.9483 31.29Z" fill="#303030"/>
</svg>
