<svg width="25" height="25" viewBox="0 0 25 25" fill="none" xmlns="http://www.w3.org/2000/svg">
<g clip-path="url(#clip0_510_3337)">
<path d="M3.45767 17.1689L8.63576 21.8116L19.619 9.57098L14.4401 4.92589L3.45767 17.1689ZM13.1425 10.6085L6.97589 17.4828C6.8984 17.5682 6.79085 17.6212 6.67539 17.6275C6.55994 17.6347 6.44607 17.5943 6.36066 17.516L6.05462 17.2408C5.87591 17.0803 5.86088 16.8051 6.02141 16.6264L12.188 9.75207C12.2655 9.66588 12.373 9.61369 12.4885 9.60736C12.6039 9.60103 12.7178 9.64136 12.8032 9.71807L13.1093 9.99247C13.288 10.1538 13.3022 10.429 13.1425 10.6085ZM14.936 7.34017L15.2412 7.61378C15.4215 7.77431 15.4358 8.0503 15.2752 8.22901L14.7391 8.82685C14.66 8.91305 14.5532 8.96445 14.4378 8.97157C14.3223 8.97789 14.2092 8.93835 14.123 8.86085L13.817 8.58645C13.7316 8.50895 13.6794 8.40141 13.6715 8.28516C13.6652 8.16971 13.7055 8.05583 13.7838 7.97043L14.3199 7.37259C14.4813 7.19387 14.7573 7.17885 14.936 7.34017ZM16.2123 2.95129L21.3896 7.59559L20.118 9.01348L14.9415 4.36917L16.2123 2.95129ZM23.4717 3.01851L20.5371 0.38518C19.9179 -0.170745 18.9666 -0.118553 18.4115 0.500635L16.6812 2.43016L21.8593 7.07367L23.5896 5.14573C23.8553 4.84839 23.9953 4.45695 23.9707 4.05839C23.9486 3.65905 23.7691 3.285 23.4717 3.01851ZM21.7526 5.13861L18.6139 2.32419L19.5202 1.31515L22.658 4.12877L21.7526 5.13861ZM1.05684 24.0424C0.976969 24.3192 1.06237 24.6173 1.27589 24.8079C1.4894 25.0001 1.79464 25.053 2.06035 24.9447L8.0142 22.5059L2.8377 17.8616L1.05684 24.0424ZM6.31954 22.2117L3.98039 23.1694L2.61232 21.9421L3.31217 19.5136L6.31954 22.2117Z" fill="#797979"/>
</g>
<defs>
<clipPath id="clip0_510_3337">
<rect width="25" height="25" fill="white"/>
</clipPath>
</defs>
</svg>
