<svg width="22" height="22" viewBox="0 0 22 22" fill="none" xmlns="http://www.w3.org/2000/svg">
<path d="M20.3059 2.75244H1.69409C0.761181 2.75244 0 3.51362 0 4.44654V17.5537C0 18.4866 0.761181 19.2478 1.69409 19.2478H20.3059C21.2388 19.2478 22 18.4866 22 17.5537V4.44654C22 3.51362 21.2388 2.75244 20.3059 2.75244ZM20.0599 4.00561L11.116 11.6546L2.17215 4.00561H20.0599ZM20.7468 17.5537C20.7468 17.7951 20.5473 17.9946 20.3059 17.9946H1.69409C1.45274 17.9946 1.25316 17.7951 1.25316 17.5537V4.8689L10.7076 12.9541C10.7122 12.9588 10.7215 12.9634 10.7262 12.9681C10.7308 12.9727 10.7401 12.9773 10.7447 12.982C10.7586 12.9913 10.7679 13.0006 10.7819 13.0052C10.7865 13.0098 10.7911 13.0098 10.7958 13.0145C10.8143 13.0238 10.8329 13.033 10.8515 13.0423C10.8561 13.0423 10.8608 13.047 10.8654 13.047C10.8793 13.0516 10.8932 13.0609 10.9118 13.0655C10.9165 13.0655 10.9257 13.0702 10.9304 13.0702C10.9443 13.0748 10.9582 13.0795 10.9722 13.0795C10.9768 13.0795 10.9861 13.0841 10.9907 13.0841C11.0046 13.0887 11.0232 13.0887 11.0371 13.0934C11.0418 13.0934 11.0464 13.0934 11.0511 13.0934C11.0696 13.0934 11.0928 13.098 11.1114 13.098C11.13 13.098 11.1532 13.098 11.1717 13.0934C11.1764 13.0934 11.181 13.0934 11.1857 13.0934C11.1996 13.0934 11.2181 13.0887 11.2321 13.0841C11.2367 13.0841 11.246 13.0795 11.2506 13.0795C11.2646 13.0748 11.2785 13.0702 11.2924 13.0702C11.297 13.0702 11.3063 13.0655 11.311 13.0655C11.3249 13.0609 11.3388 13.0562 11.3574 13.047C11.362 13.047 11.3667 13.0423 11.3713 13.0423C11.3899 13.033 11.4084 13.0238 11.427 13.0145C11.4316 13.0098 11.4363 13.0098 11.4409 13.0052C11.4549 12.9959 11.4641 12.9913 11.4781 12.982C11.4827 12.9773 11.492 12.9727 11.4966 12.9681C11.5013 12.9634 11.5105 12.9588 11.5152 12.9541L20.7468 5.06848V17.5537Z" fill="#375CE0"/>
</svg>
