<svg width="12" height="20" viewBox="0 0 12 20" fill="none" xmlns="http://www.w3.org/2000/svg">
<path d="M11.5 6.38298C11.5 7.16126 11.1589 8.37505 10.5967 9.81612C10.0425 11.2368 9.30042 12.8127 8.55389 14.2877C7.80811 15.7611 7.06178 17.1261 6.50159 18.1232C6.31 18.4642 6.1403 18.7619 6 19.006C5.8597 18.7619 5.69 18.4642 5.49841 18.1232C4.93822 17.1261 4.19189 15.7611 3.44611 14.2877C2.69958 12.8127 1.95754 11.2368 1.40331 9.81612C0.84111 8.37505 0.5 7.16126 0.5 6.38298C0.5 3.1043 2.99113 0.5 6 0.5C9.00887 0.5 11.5 3.1043 11.5 6.38298Z" stroke="#3A3A3A"/>
<circle cx="6" cy="6" r="3.5" stroke="#3A3A3A"/>
</svg>
