<svg width="60" height="60" viewBox="0 0 60 60" fill="none" xmlns="http://www.w3.org/2000/svg">
<circle cx="39" cy="30" r="21" fill="#365BDF"/>
<path d="M57.1874 28.1251H53.4374V26.2501C53.4374 25.7324 53.0176 25.3127 52.4999 25.3127H50.6249V20.6251C50.6249 9.25237 41.3726 0 29.9999 0C18.6272 0 9.375 9.25237 9.375 20.6249V25.3125H7.49994C6.98222 25.3125 6.56247 25.7323 6.56247 26.25V28.1249H2.81247C2.29475 28.1249 1.875 28.5447 1.875 29.0624V41.2499C1.875 41.7676 2.29475 42.1873 2.81247 42.1873H6.56247V44.0623C6.56247 44.58 6.98222 44.9998 7.49994 44.9998H13.125C13.6428 44.9998 14.0625 44.58 14.0625 44.0623V26.25C14.0625 25.7323 13.6427 25.3125 13.125 25.3125H11.2499V20.6249C11.2499 10.2862 19.6611 1.87494 29.9999 1.87494C40.3388 1.87494 48.7499 10.2862 48.7499 20.6249V25.3125H46.875C46.3573 25.3125 45.9375 25.7323 45.9375 26.25V44.0625C45.9375 44.5802 46.3573 45 46.875 45H48.7499V48.75C48.7499 51.3347 46.6471 53.4376 44.0625 53.4376H34.6078C34.16 50.7807 31.8446 48.75 29.0625 48.75C25.9608 48.75 23.4374 51.2733 23.4374 54.3751C23.4374 57.4767 25.9607 60 29.0625 60C31.8446 60 34.16 57.9693 34.6078 55.3125H44.0625C47.6811 55.3125 50.6249 52.3686 50.6249 48.75V45H52.4999C53.0176 45 53.4374 44.5802 53.4374 44.0625V42.1876H57.1874C57.7051 42.1876 58.1249 41.7678 58.1249 41.2501V29.0627C58.1249 28.5447 57.7051 28.1251 57.1874 28.1251ZM6.56235 40.3125H3.74994V30H6.56235V40.3125ZM12.1874 27.1875V43.1251H8.43741V27.1875H12.1874ZM29.0625 58.1251C26.9947 58.1251 25.3125 56.4429 25.3125 54.3751C25.3125 52.3073 26.9947 50.6249 29.0625 50.6249C31.1301 50.6249 32.8125 52.3073 32.8125 54.3751C32.8125 56.4429 31.1301 58.1251 29.0625 58.1251ZM51.5625 43.1251H47.8125V27.1875H51.5625V43.1251ZM56.2499 40.3125H53.4374V30H56.2499V40.3125Z" fill="black"/>
<path d="M29.9999 44.807V38.2446C29.9999 37.7269 29.5802 37.3071 29.0625 37.3071C28.5448 37.3071 28.125 37.7269 28.125 38.2446V44.807C28.125 45.3248 28.5448 45.7445 29.0625 45.7445C29.5802 45.7446 29.9999 45.3248 29.9999 44.807Z" fill="black"/>
<path d="M33.2805 46.875C33.6045 46.875 33.9195 46.7069 34.0932 46.4062L37.3744 40.7229C37.6333 40.2745 37.4796 39.7012 37.0313 39.4424C36.583 39.1835 36.0096 39.3373 35.7507 39.7855L32.4695 45.4687C32.2106 45.9171 32.3643 46.4904 32.8126 46.7493C32.9601 46.8346 33.1214 46.875 33.2805 46.875Z" fill="black"/>
<path d="M24.8449 46.875C25.004 46.875 25.1652 46.8345 25.3128 46.7493C25.7612 46.4904 25.9149 45.917 25.6559 45.4687L22.3746 39.7855C22.1158 39.3368 21.5421 39.1834 21.0939 39.4424C20.6455 39.7013 20.4918 40.2747 20.7508 40.723L24.0321 46.4062C24.2057 46.707 24.5208 46.875 24.8449 46.875Z" fill="black"/>
</svg>
