<svg width="114" height="19" viewBox="0 0 114 19" fill="none" xmlns="http://www.w3.org/2000/svg">
<path d="M2.472 18.168C1.448 18.168 0.656 18.056 0.096 17.832L0.24 15.456C0.608 15.616 1.088 15.696 1.68 15.696C2.848 15.696 3.6 14.704 3.936 12.72C4.272 10.736 4.456 6.912 4.488 1.248H15.504V18H12.576V3.672H7.272C7.272 5.192 7.256 6.464 7.224 7.488C7.192 8.496 7.136 9.56 7.056 10.68C6.992 11.784 6.888 12.68 6.744 13.368C6.6 14.056 6.408 14.744 6.168 15.432C5.944 16.104 5.664 16.624 5.328 16.992C4.992 17.344 4.584 17.632 4.104 17.856C3.64 18.064 3.096 18.168 2.472 18.168ZM27.3919 0.959999C29.8079 0.959999 31.7359 1.744 33.1759 3.312C34.6319 4.864 35.3599 6.944 35.3599 9.552C35.3599 12.24 34.6239 14.368 33.1519 15.936C31.6799 17.504 29.6959 18.288 27.1999 18.288C24.7359 18.288 22.7599 17.512 21.2719 15.96C19.7999 14.392 19.0639 12.288 19.0639 9.648C19.0639 6.944 19.7999 4.824 21.2719 3.288C22.7599 1.736 24.7999 0.959999 27.3919 0.959999ZM27.1999 3.24C25.7119 3.24 24.5039 3.832 23.5759 5.016C22.6479 6.184 22.1839 7.72 22.1839 9.624C22.1839 11.56 22.6479 13.112 23.5759 14.28C24.5039 15.432 25.7279 16.008 27.2479 16.008C28.7359 16.008 29.9439 15.424 30.8719 14.256C31.7999 13.072 32.2639 11.528 32.2639 9.624C32.2639 7.656 31.8079 6.104 30.8959 4.968C29.9839 3.816 28.7519 3.24 27.1999 3.24ZM38.9391 18V1.248H48.4671V3.672H41.8671V18H38.9391ZM57.96 0.959999C60.376 0.959999 62.304 1.744 63.744 3.312C65.2 4.864 65.928 6.944 65.928 9.552C65.928 12.24 65.192 14.368 63.72 15.936C62.248 17.504 60.264 18.288 57.768 18.288C55.304 18.288 53.328 17.512 51.84 15.96C50.368 14.392 49.632 12.288 49.632 9.648C49.632 6.944 50.368 4.824 51.84 3.288C53.328 1.736 55.368 0.959999 57.96 0.959999ZM57.768 3.24C56.28 3.24 55.072 3.832 54.144 5.016C53.216 6.184 52.752 7.72 52.752 9.624C52.752 11.56 53.216 13.112 54.144 14.28C55.072 15.432 56.296 16.008 57.816 16.008C59.304 16.008 60.512 15.424 61.44 14.256C62.368 13.072 62.832 11.528 62.832 9.624C62.832 7.656 62.376 6.104 61.464 4.968C60.552 3.816 59.32 3.24 57.768 3.24ZM72.0173 18V3.672H67.1453V1.248H79.8413V3.672H74.9693V18H72.0173ZM82.4944 18V1.248H85.3504V8.712C85.3504 10.824 85.2944 12.704 85.1824 14.352H85.2304L92.8864 1.248H96.1504V18H93.2704V10.536C93.2704 8.456 93.3264 6.576 93.4384 4.896H93.3904L85.6864 18H82.4944ZM100.591 18V1.248H113.599V18H110.671V3.672H103.519V18H100.591Z" fill="white"/>
</svg>
