<svg width="114" height="114" viewBox="0 0 114 114" fill="none" xmlns="http://www.w3.org/2000/svg">
<path d="M103.461 13.7766C103.461 11.8743 101.913 10.3267 100.011 10.3267H70.1999C68.2976 10.3267 66.75 11.8743 66.75 13.7766V19.358H103.461V13.7766H103.461Z" fill="#D3D3D3"/>
<path d="M35.9208 89.6208C49.9163 89.6208 61.3025 78.2346 61.3025 64.2391C61.3025 50.2436 49.9163 38.8574 35.9208 38.8574C21.9252 38.8574 10.5391 50.2436 10.5391 64.2391C10.5391 78.2346 21.9252 89.6208 35.9208 89.6208ZM23.4552 51.7736C30.3286 44.901 41.5125 44.901 48.3859 51.7736C51.7153 55.1034 53.5493 59.5306 53.5493 64.2391C53.5493 68.9477 51.7157 73.3749 48.3855 76.7043C45.0565 80.0333 40.6293 81.8673 35.9208 81.8673C31.2122 81.8673 26.785 80.0337 23.4556 76.7043C20.1262 73.3745 18.2922 68.9473 18.2922 64.2391C18.2918 59.5306 20.1258 55.1034 23.4552 51.7736Z" fill="#D3D3D3"/>
<path d="M66.7488 64.2389C66.7488 71.1104 64.4872 77.4626 60.6723 82.5941H113.999V45.8838H60.6719C64.4872 51.0153 66.7488 57.3675 66.7488 64.2389Z" fill="#D3D3D3"/>
<path d="M5.09238 64.2388C5.09238 57.3674 7.35396 51.0148 11.1693 45.8833H0V82.594H11.1689C7.35358 77.4624 5.09238 71.1103 5.09238 64.2388Z" fill="#D3D3D3"/>
<path d="M44.5331 72.8524C46.8342 70.5517 48.1013 67.4929 48.1013 64.2391C48.1013 60.9853 46.8342 57.9261 44.5331 55.6254C42.2324 53.3243 39.174 52.0576 35.9198 52.0576C32.6656 52.0576 29.6072 53.3243 27.3064 55.6254C25.0053 57.9261 23.7383 60.9849 23.7383 64.2391C23.7383 67.4925 25.0053 70.5517 27.3064 72.8524C32.0557 77.6021 39.7835 77.6021 44.5331 72.8524Z" fill="#D3D3D3"/>
<path d="M107.726 24.8047H6.27384C2.8143 24.8047 0 27.619 0 31.0785V40.4365H16.3507C21.6777 36.0488 28.4969 33.4103 35.9207 33.4103C43.3446 33.4103 50.1638 36.0488 55.4907 40.4365H114V31.0785C114 27.619 111.186 24.8047 107.726 24.8047ZM96.9223 35.4508H75.8434C74.3391 35.4508 73.1197 34.2314 73.1197 32.7271C73.1197 31.2228 74.3391 30.0034 75.8434 30.0034H96.9223C98.4265 30.0034 99.646 31.2228 99.646 32.7271C99.646 34.2314 98.4265 35.4508 96.9223 35.4508Z" fill="#D3D3D3"/>
<path d="M35.9211 95.068C28.4969 95.068 21.6777 92.4295 16.3504 88.0415H0V97.3995C0 100.859 2.8143 103.673 6.27384 103.673H107.726C111.186 103.673 114 100.859 114 97.3995V88.0415H55.4915C50.1646 92.4292 43.3453 95.068 35.9211 95.068Z" fill="#D3D3D3"/>
</svg>
